<svg xmlns="http://www.w3.org/2000/svg" xmlns:xlink="http://www.w3.org/1999/xlink" version="1.1" x="0px" y="0px" viewBox="0 0 800 600" enable-background="new 0 0 800 600" xml:space="preserve"><g><path fill="#010101" d="M635.68,241.44H515.2c6.24,3.84,26.88,9.12,60,9.12C608.8,250.56,629.92,245.28,635.68,241.44z"></path><path fill="#010101" d="M577.6,233.28c0-1.44-1.439-2.88-2.88-2.88c-1.439,0-2.88,1.44-2.88,2.88v3.36h5.76V233.28z"></path><path fill="#010101" d="M284.8,240.96H164.32c6.24,3.84,26.88,9.12,60.48,9.12C257.92,250.08,279.04,245.28,284.8,240.96z"></path><path fill="#010101" d="M578.08,271.2v-15.84c-0.96,0-1.44,0-2.4,0s-2.399,0-3.359,0v15.36c-2.4-0.48-3.84-0.48-3.84-0.48H463.84   l-11.52-20.64c-0.96-1.44-3.36-2.88-5.28-2.88h-28.32c-5.279-4.8-11.52-8.16-18.72-8.16s-13.92,3.36-18.72,8.16h-28.32   c-1.92,0-4.32,1.44-5.28,2.88l-11.52,20.64H232c0,0-1.44,0-3.84,0.48v-15.36c-1.44,0-2.4,0-3.84,0c-0.48,0-1.44,0-2.4,0v16.32   c-7.68,1.44-16.8,4.32-16.8,10.08c0,10.08,6.24,27.84,15.36,27.84s11.04-4.8,11.04-4.8l11.04-25.92c0,0,49.44,0,108.96,0   l8.16,23.521c-7.2,7.68-15.84,19.68-15.84,31.68c0,22.08,3.84,28.8,3.84,28.8s3.84,9.601,4.32-1.439s-3.36-10.561-3.36-28.32   c0-9.12,7.2-19.2,13.92-26.88h74.4c6.72,7.68,13.92,17.76,13.92,26.88c0,17.28-3.84,16.8-3.359,28.32   c0.479,11.52,4.319,1.439,4.319,1.439s3.84-6.72,3.84-28.8c0-12-8.159-23.521-15.84-31.68L448,278.88c59.521,0,108.96,0,108.96,0   L568,304.8c0,0,1.44,4.8,11.04,4.8c9.601,0,15.36-18.24,15.36-27.84C594.4,275.52,585.28,272.64,578.08,271.2z"></path><path fill="#010101" d="M228.16,233.28c0-1.44-1.44-2.88-2.88-2.88c-1.44,0-2.88,1.44-2.88,2.88v2.88h5.76V233.28z"></path><path fill="#010101" d="M442.5,350.5h-85c-2.2,0-4,1.8-4,4v22c0,2.2,1.8,4,4,4h85c2.2,0,4-1.8,4-4v-22   C446.5,352.3,444.7,350.5,442.5,350.5z"></path><path fill="#010101" d="M368.5,338.5v11h62v-11c0-2.2-1.8-4-4-4h-54C370.3,334.5,368.5,336.3,368.5,338.5z"></path><polygon fill="#010101" points="368.605,484.5 430.856,484.5 435.055,442.42 364.408,442.42  "></polygon><circle fill="#010101" cx="399.731" cy="427.254" r="10"></circle><polygon fill="#010101" points="361.381,412.086 438.081,412.086 441.133,381.5 358.33,381.5  "></polygon><path fill="#010101" d="M400.938,331.084c6.977-9.896-1.269-14.209,0-19.918C393.635,318.223,405.252,324.995,400.938,331.084z"></path></g></svg>